<svg width="85" height="85" viewBox="0 0 85 85" fill="none" xmlns="http://www.w3.org/2000/svg">
<circle cx="42.5" cy="42.5" r="42.5" fill="#FFF1F2"/>
<g clip-path="url(#clip0)">
<path d="M58.4516 37.1615C58.437 37.1615 58.4238 37.1634 58.4101 37.1634C58.1128 34.4704 56.1707 32.2727 53.6129 31.5842V27.4841H49.742V22.6454C49.742 19.9774 47.5712 17.8066 44.9032 17.8066C42.2353 17.8066 40.0645 19.9774 40.0645 22.6454V27.4841H36.1936V31.5852C33.4113 32.3336 31.3549 34.8697 31.3549 37.8845C31.3549 38.0758 31.3634 38.2686 31.3799 38.4581L34.105 69.3526C34.2397 70.8614 35.4834 72.0002 36.9978 72.0002H52.8087C54.3231 72.0002 55.5668 70.8614 55.7006 69.3526L56.1679 64.0513C56.9121 64.1779 57.6715 64.2583 58.4516 64.2583C65.9228 64.2583 72 58.181 72 50.7099C72 43.2387 65.9228 37.1615 58.4516 37.1615ZM51.6774 31.355H49.742V29.4195H51.6774V31.355ZM43.9355 29.4195V31.355H42V29.4195H43.9355ZM45.871 29.4195H47.8065V31.355H45.871V29.4195ZM42 22.6454C42 21.0449 43.3028 19.7421 44.9032 19.7421C46.5037 19.7421 47.8065 21.0449 47.8065 22.6454V27.4841H42V22.6454ZM40.0645 29.4195V31.355H38.1291V29.4195H40.0645ZM53.7726 69.182C53.7282 69.6843 53.3138 70.0647 52.8087 70.0647H36.9978C36.4927 70.0647 36.0783 69.6843 36.0339 69.182L33.3088 38.2861C33.296 38.1524 33.2903 38.0191 33.2903 37.8845C33.2903 35.3507 35.3506 33.2905 37.8843 33.2905H51.9222C54.2641 33.2905 56.1792 35.0578 56.4599 37.325C54.7394 37.5806 53.1253 38.1543 51.6774 38.9954V35.226H38.1291V68.1292H51.6774V62.4253C52.4921 62.8988 53.3554 63.2924 54.266 63.5896L53.7726 69.182ZM47.3486 42.9679H42V44.9034H46.2292C45.9319 45.5257 45.6735 46.1693 45.4741 46.8389H42V48.7744H45.0582C44.9661 49.408 44.9032 50.0507 44.9032 50.7099H42V52.6454H45.0582C45.1527 53.3064 45.2865 53.9538 45.4741 54.5808H42V56.5163H46.2292C46.5524 57.1939 46.9228 57.8422 47.3486 58.4518H42V60.3873H47.8065V59.0633C48.3834 59.7971 49.0289 60.4723 49.742 61.0734V66.1937H40.0645V37.1615H49.742V40.3473C48.8342 41.1109 48.0309 41.9936 47.3486 42.9679ZM58.4516 62.3228C52.0479 62.3228 46.8387 57.1136 46.8387 50.7099C46.8387 44.3061 52.0479 39.097 58.4516 39.097C64.8554 39.097 70.0645 44.3061 70.0645 50.7099C70.0645 57.1136 64.8554 62.3228 58.4516 62.3228Z" fill="#043353"/>
<path d="M64.2581 53.6129H67.1613V51.6774H64.2581V50.7782H66.539V48.8427H63.9443C63.6202 47.8905 63.055 47.0518 62.3226 46.3936V44.9032C62.3226 42.7683 60.5865 41.0322 58.4516 41.0322C56.3167 41.0322 54.5807 42.7683 54.5807 44.9032V46.3936C54.128 46.8009 53.7386 47.2762 53.431 47.8064H49.7419V49.7419H52.7321C52.6792 50.0576 52.6452 50.3798 52.6452 50.7096V51.6774H49.7419V53.6129H52.6452V54.5806C52.6452 54.9104 52.6792 55.2327 52.7321 55.5484H49.7419V57.4838H53.431C54.4365 59.2161 56.3082 60.3871 58.4516 60.3871C60.595 60.3871 62.4667 59.2161 63.4723 57.4838H67.1613V55.5484H64.1711C64.2241 55.2327 64.2581 54.9104 64.2581 54.5806V53.6129ZM58.4516 48.7742C57.0912 48.7742 56.2837 48.2681 55.8522 47.8608C56.5402 47.2328 57.448 46.8387 58.4516 46.8387C59.4553 46.8387 60.363 47.2328 61.051 47.8608C60.6196 48.2681 59.812 48.7742 58.4516 48.7742ZM56.5161 44.9032C56.5161 43.8357 57.3842 42.9677 58.4516 42.9677C59.5191 42.9677 60.3871 43.8357 60.3871 44.9032V45.242C59.7804 45.027 59.1311 44.9032 58.4516 44.9032C57.7721 44.9032 57.1229 45.027 56.5161 45.242V44.9032ZM62.3226 54.5806C62.3226 56.3795 61.0841 57.8817 59.4194 58.3141V54.5806H57.4839V58.3141C55.8192 57.8817 54.5807 56.3795 54.5807 54.5806V50.7096C54.5807 50.2858 54.6657 49.8841 54.7928 49.5019C55.3887 49.9886 56.2666 50.4649 57.4839 50.6369V52.6451H59.4194V50.6378C60.6366 50.4658 61.5146 49.9895 62.1104 49.5028C62.2375 49.8841 62.3226 50.2858 62.3226 50.7096V54.5806Z" fill="#E8616B"/>
<path d="M43.9355 22.6455H45.871V24.581H43.9355V22.6455Z" fill="#E8616B"/>
<path d="M21.6774 13.9355C23.2779 13.9355 24.5806 15.2382 24.5806 16.8387H26.5161C26.5161 14.1708 24.3453 12 21.6774 12C19.0095 12 16.8387 14.1708 16.8387 16.8387H18.7742C18.7742 15.2382 20.0769 13.9355 21.6774 13.9355Z" fill="#E8616B"/>
<path d="M21.6774 33.2899C20.0769 33.2899 18.7742 31.9872 18.7742 30.3867H16.8387C16.8387 33.0546 19.0095 35.2254 21.6774 35.2254C24.3453 35.2254 26.5161 33.0546 26.5161 30.3867H24.5806C24.5806 31.9872 23.2779 33.2899 21.6774 33.2899Z" fill="#E8616B"/>
<path d="M16.8387 26.5163C15.2382 26.5163 13.9355 25.2136 13.9355 23.6131C13.9355 22.0127 15.2382 20.7099 16.8387 20.7099V18.7744C14.1708 18.7744 12 20.9452 12 23.6131C12 26.281 14.1708 28.4518 16.8387 28.4518V26.5163Z" fill="#E8616B"/>
<path d="M24.2749 20.6604C28.2262 21.9774 32.3419 22.6451 36.5082 22.6451H37.1613V20.7096H36.5082C32.5508 20.7096 28.6411 20.075 24.8873 18.8232L24.2749 20.6604Z" fill="#043353"/>
<path d="M24.2749 25.5979L24.8873 27.4342C28.6401 26.1834 32.5508 25.5488 36.5082 25.5488H37.1613V23.6133H36.5082C32.3419 23.6133 28.2262 24.281 24.2749 25.5979Z" fill="#043353"/>
<path d="M20.7097 24.5809V26.5164C22.3101 26.5164 23.6129 25.2136 23.6129 23.6132C23.6129 22.0127 22.3101 20.71 20.7097 20.71V22.6454C21.2427 22.6454 21.6774 23.0802 21.6774 23.6132C21.6774 24.1462 21.2427 24.5809 20.7097 24.5809Z" fill="#043353"/>
<path d="M42 39.0967H47.8065V41.0322H42V39.0967Z" fill="#043353"/>
<path d="M42 62.3223H47.8065V64.2578H42V62.3223Z" fill="#043353"/>
</g>
<defs>
<clipPath id="clip0">
<rect width="60" height="60" fill="white" transform="translate(12 12)"/>
</clipPath>
</defs>
</svg>
