<svg width="85" height="85" viewBox="0 0 85 85" fill="none" xmlns="http://www.w3.org/2000/svg">
<circle cx="42.5" cy="42.5" r="42.5" fill="#FFF1F2"/>
<g clip-path="url(#clip0)">
<path d="M63 12H53C52.4478 12 52 12.4478 52 13V16C52 16.4751 52.3345 16.8848 52.7998 16.98L53.7568 17.1719C54.5723 17.3374 55.3394 17.6865 56 18.1919V18.3921C56.002 20.3105 55.043 22.1025 53.4448 23.165L54.5552 24.8291C56.1206 23.7856 57.251 22.2065 57.7329 20.3882C57.8564 20.6626 57.957 20.9473 58.0332 21.2388C58.1426 21.6846 58.5415 21.998 59 22H61V24.853L58.292 33.8789L60.208 34.4541L62.7441 26H67.165L69 36.0898V59C69 60.6567 67.6567 62 66 62H63.417V64H66C68.7603 63.9966 70.9966 61.7603 71 59V36C71 35.9399 70.9941 35.8799 70.9829 35.8208L69 24.9131V22H71C71.5522 22 72 21.5522 72 21C71.9946 16.0317 67.9683 12.0054 63 12ZM67 24H63V22H67V24ZM68 20H59.7368C58.832 17.5435 56.7188 15.731 54.1528 15.2109L54 15.1802V14H63C66.478 14.0044 69.4272 16.5581 69.9292 20H68Z" fill="#043353"/>
<path d="M17 64H24V62H17C15.3433 62 14 60.6567 14 59V44.6812C14 43.6587 14.1426 42.6416 14.4238 41.6592L15.9619 36.2749C16.0176 36.0811 16.0127 35.875 15.9482 35.6841L14.1919 30.416C13.7041 28.9482 14.1646 27.332 15.353 26.3418L19.3618 23H28.6382L31.5381 25.418L32.8188 23.8818L30 21.5308V19C30 18.7349 29.8945 18.4805 29.707 18.293L28 16.5859V13C28 12.4478 27.5522 12 27 12H21C20.4478 12 20 12.4478 20 13V16.5859L18.293 18.293C18.1055 18.4805 18 18.7349 18 19V21.5308L14.0718 24.8052C12.252 26.3228 11.5488 28.8013 12.2998 31.0488L13.957 36.0229L12.5 41.1089C12.168 42.2705 11.9995 43.4727 12 44.6812V59C12.0034 61.7603 14.2397 63.9966 17 64ZM22 14H26V16H22V14ZM20 19.4141L21.4141 18H26.5859L28 19.4141V21H20V19.4141Z" fill="#E8616B"/>
<path d="M29.9999 29C29.9999 26.7568 27.3637 25 23.9999 25C20.6362 25 17.9999 26.7568 17.9999 29C17.9999 31.2432 20.6362 33 23.9999 33C27.3637 33 29.9999 31.2432 29.9999 29ZM19.9999 29C19.9999 28.0562 21.7109 27 23.9999 27C26.289 27 27.9999 28.0562 27.9999 29C27.9999 29.9438 26.289 31 23.9999 31C21.7109 31 19.9999 29.9438 19.9999 29Z" fill="#043353"/>
<path d="M22.9 45.1681L23.5718 43.2853L17.336 41.0583C17.0298 40.9489 16.6895 40.9953 16.4239 41.1828C16.1583 41.3703 16.0001 41.675 16.0001 42.0001V54.0001C16.0035 56.7604 18.2398 58.9967 21.0001 59.0001H23.0001V57.0001H21.0001C19.3433 57.0001 18.0001 55.6569 18.0001 54.0001V43.4191L22.9 45.1681Z" fill="#E8616B"/>
<path d="M49.8217 44.4049C52.5927 48.0612 53.4877 52.8058 52.2387 57.2203C51.7606 58.775 52.6239 60.4244 54.1737 60.9181C55.7235 61.4117 57.3817 60.5651 57.891 59.0201C60.1342 52.6676 58.9638 45.609 54.7909 40.3199L54.391 39.8092C53.3031 38.4176 51.2953 38.1666 49.8984 39.2472C48.5009 40.3282 48.2397 42.3346 49.3129 43.7369L49.8217 44.4049ZM50.682 41.5099C50.787 41.0563 51.1435 40.7032 51.5985 40.6022C52.0531 40.5016 52.5253 40.6705 52.8129 41.0372L53.2128 41.548C56.9638 46.3004 58.016 52.6442 55.9999 58.3531C55.8661 58.6739 55.5751 58.902 55.2313 58.9557C54.8881 59.0094 54.5414 58.881 54.3158 58.6163C54.1332 58.3741 54.0746 58.0602 54.1591 57.7692C55.579 52.7482 54.5609 47.3517 51.4091 43.193L50.894 42.5172C50.6767 42.2301 50.5985 41.8605 50.682 41.5099Z" fill="#043353"/>
<path d="M30.1679 71.5552C30.3535 71.833 30.6655 72 31 72H55C55.3037 72 55.5913 71.8623 55.7807 71.625L58.2807 68.499C62.6279 63.063 64.624 56.1162 63.8247 49.2021C63.0258 42.2876 59.498 35.979 54.0258 31.6782L50 28.5142V25C50 24.4478 49.5522 24 49 24H48V20C48 18.8955 47.1045 18 46 18H38C36.8955 18 36 18.8955 36 20V24H35C34.4477 24 34 24.4478 34 25V28.6299L32.666 30.187C22.7007 41.876 21.6816 58.7515 30.1679 71.5552ZM38 20H46V24H38V20ZM34.1841 31.4878L35.7588 29.6509C35.9145 29.4697 36 29.2388 36 29V26H48V28H38V30H48.6538L52.791 33.25C57.8442 37.2217 61.1015 43.0469 61.8393 49.4316C62.5771 55.8159 60.7338 62.2305 56.7202 67.25L54.52 70H31.54C23.8545 57.9785 24.9277 42.3462 34.1841 31.4878Z" fill="#043353"/>
<path d="M40.4998 64C44.3582 64.0024 47.9598 62.0664 50.0858 58.8472C50.2264 58.6353 50.2811 58.3784 50.2386 58.1279C49.0267 50.9282 46.305 45.2759 42.1458 41.3281C41.9822 41.1724 41.7708 41.0762 41.5457 41.0562C41.2 41.021 40.8538 41 40.4998 41C34.1487 41 28.9998 46.1489 28.9998 52.5C28.9998 58.8511 34.1487 64 40.4998 64ZM40.4998 43C40.6746 43 40.8489 43.0068 41.0208 43.0181C44.6429 46.582 47.055 51.6392 48.1981 58.062C45.5697 61.7017 40.7523 63.0044 36.6478 61.1855C32.5433 59.3667 30.2723 54.9233 31.2025 50.5312C32.1326 46.1396 36.0106 42.9985 40.4998 43Z" fill="#E8616B"/>
</g>
<defs>
<clipPath id="clip0">
<rect width="60" height="60" fill="white" transform="translate(12 12)"/>
</clipPath>
</defs>
</svg>
