<svg width="85" height="85" viewBox="0 0 85 85" fill="none" xmlns="http://www.w3.org/2000/svg">
<circle cx="42.5" cy="42.5" r="42.5" fill="#FFF1F2"/>
<path d="M24 51.1996C24.4418 51.1996 24.7999 50.8414 24.7999 50.3996C24.7999 49.9578 24.4418 49.5996 24 49.5996C23.5581 49.5996 23.2 49.9578 23.2 50.3996C23.2 50.8414 23.5581 51.1996 24 51.1996Z" fill="#E8616B"/>
<path d="M23.2 63.1996C23.6419 63.1996 24 62.8414 24 62.3996C24 61.9578 23.6419 61.5996 23.2 61.5996C22.7582 61.5996 22.4 61.9578 22.4 62.3996C22.4 62.8414 22.7582 63.1996 23.2 63.1996Z" fill="#E8616B"/>
<path d="M47.2001 20.7992C47.642 20.7992 48.0002 20.441 48.0002 19.9992C48.0002 19.5574 47.642 19.1992 47.2001 19.1992C46.7583 19.1992 46.4001 19.5574 46.4001 19.9992C46.4001 20.441 46.7583 20.7992 47.2001 20.7992Z" fill="#E8616B"/>
<path d="M38.8438 61.956C38.5314 61.6436 38.025 61.6436 37.7126 61.956L36.8 62.8686L35.8876 61.9562C35.5752 61.6438 35.0688 61.6438 34.7564 61.9562C34.444 62.2686 34.444 62.775 34.7564 63.0874L35.6688 63.9998L34.7564 64.9122C34.444 65.2246 34.444 65.731 34.7564 66.0434C34.9126 66.1996 35.1174 66.2778 35.322 66.2778C35.5266 66.2778 35.7314 66.1996 35.8876 66.0434L36.8 65.131L37.7124 66.0434C37.8686 66.1996 38.0734 66.2778 38.278 66.2778C38.4826 66.2778 38.6874 66.1996 38.8436 66.0434C39.156 65.731 39.156 65.2246 38.8436 64.9122L37.9312 63.9998L38.8436 63.0874C39.1562 62.7748 39.1562 62.2686 38.8438 61.956Z" fill="#E8616B"/>
<path d="M46.4 31.9996C46.4 24.0594 39.9398 17.5996 32 17.5996C24.0602 17.5996 17.6 24.0594 17.6 31.9996C17.6 39.9398 24.0602 46.3996 32 46.3996C39.9398 46.3996 46.4 39.9398 46.4 31.9996ZM19.2 31.9996C19.2 24.9418 24.9422 19.1996 32 19.1996C39.0578 19.1996 44.8 24.9418 44.8 31.9996C44.8 39.0574 39.0578 44.7996 32 44.7996C24.9422 44.7996 19.2 39.0574 19.2 31.9996Z" fill="#043353"/>
<path d="M53.6 40.7998C46.5422 40.7998 40.8 46.542 40.8 53.5998C40.8 60.6576 46.5422 66.3998 53.6 66.3998C60.6579 66.3998 66.4001 60.6576 66.4001 53.5998C66.4001 46.542 60.6579 40.7998 53.6 40.7998ZM53.6 64.7998C47.4242 64.7998 42.4 59.7756 42.4 53.5998C42.4 47.424 47.4242 42.3998 53.6 42.3998C59.7759 42.3998 64.8001 47.424 64.8001 53.5998C64.8001 59.7756 59.7759 64.7998 53.6 64.7998Z" fill="#043353"/>
<path d="M27.5281 33.6109C27.6085 33.2965 27.7825 33.0287 28.0153 32.7883C28.0171 33.0857 28.0533 33.4021 28.1289 33.7395C28.6453 36.0531 30.7555 39.1681 32.9375 39.1681C33.0999 39.1681 33.2633 39.1509 33.4265 39.1145C35.7733 38.5903 36.4913 34.4833 35.9359 31.9965C35.8607 31.6591 35.7589 31.3575 35.6341 31.0877C35.9465 31.2065 36.2177 31.3743 36.4241 31.6241C37.8865 33.3971 36.7695 38.0593 36.2163 39.7065C36.0749 40.1249 36.3007 40.5787 36.7187 40.7197C36.8039 40.7483 36.8897 40.7615 36.9741 40.7615C37.3085 40.7615 37.6195 40.5509 37.7319 40.2169C37.9467 39.5809 39.6293 34.3371 38.1211 31.3411C39.5921 32.5475 39.7835 34.6743 39.7875 34.7193C39.8179 35.1397 40.1687 35.4607 40.5843 35.4607C40.6031 35.4607 40.6225 35.4599 40.6413 35.4587C41.0819 35.4275 41.4139 35.0451 41.3827 34.6041C41.3749 34.4853 41.1531 31.6763 39.0475 30.0287C38.3423 29.4773 37.5169 29.1323 36.5869 28.9807C38.4765 27.0181 38.7439 24.4997 38.5411 23.1853C38.4739 22.7485 38.0677 22.4529 37.6287 22.5165C37.1919 22.5837 36.8927 22.9923 36.9599 23.4289C36.9643 23.4599 37.3189 25.9849 35.3855 27.9297C35.5663 26.8269 35.5495 25.2239 34.9029 22.9925C34.7803 22.5687 34.3373 22.3241 33.9115 22.4467C33.4873 22.5697 33.2427 23.0135 33.3655 23.4377C33.9569 25.4775 33.9433 26.8561 33.7933 27.7177C33.0509 26.8199 31.8529 26.3495 30.6383 26.6209C29.8039 26.8073 29.0923 27.3073 28.6337 28.0287C28.4503 28.3179 28.3305 28.6321 28.2477 28.9545C27.7455 28.2385 27.1473 26.9963 26.8148 24.9001C26.7452 24.4637 26.3352 24.1681 25.9 24.2349C25.4632 24.3041 25.1656 24.7139 25.2352 25.1501C25.5993 27.4499 26.2677 28.9089 26.9017 29.8299C24.3506 28.9137 23.594 26.5399 23.5568 26.4175C23.4302 25.9965 22.988 25.7547 22.5646 25.8793C22.1404 26.0043 21.8982 26.4489 22.0232 26.8727C22.3984 28.1485 23.7112 30.3139 26.2558 31.2865C25.4786 31.8193 24.879 32.4829 24.4756 33.2823C23.271 35.6683 24.2646 38.3045 24.3076 38.4159C24.4302 38.7331 24.7326 38.9281 25.0536 38.9281C25.1496 38.9281 25.2474 38.9105 25.3418 38.8741C25.7536 38.7147 25.959 38.2515 25.7996 37.8393C25.7918 37.8193 25.0398 35.8171 25.8719 34.0743C25.7799 37.4273 29.5339 41.4589 29.9989 41.9435C30.1559 42.1071 30.3661 42.1895 30.5763 42.1895C30.7755 42.1895 30.9747 42.1157 31.1303 41.9669C31.4491 41.6611 31.4599 41.1547 31.1537 40.8357C29.9523 39.5831 26.9585 35.8425 27.5281 33.6109ZM33.0781 37.5527C32.0547 37.7871 30.1491 35.4487 29.6899 33.3909C29.4649 32.3803 29.7805 32.0979 29.9157 31.9777C30.2775 31.6539 30.9789 31.4637 31.6837 31.3067C32.1751 31.1969 32.6727 31.1021 33.0861 31.1021C33.2657 31.1021 33.4291 31.1201 33.5697 31.1619C33.7431 31.2139 34.1493 31.3349 34.3751 32.3451C34.8335 34.4027 34.1069 37.3229 33.0781 37.5527ZM29.9843 28.8871C30.2133 28.5265 30.5695 28.2761 30.9867 28.1831C31.8491 27.9889 32.7047 28.5351 32.8969 29.3959C32.9057 29.4359 32.9077 29.4763 32.9135 29.5167C32.3769 29.5363 31.8349 29.6335 31.3351 29.7447C30.8365 29.8559 30.3049 29.9985 29.8111 30.2087C29.7993 30.1697 29.7823 30.1331 29.7735 30.0927C29.6803 29.6761 29.7553 29.2479 29.9843 28.8871Z" fill="#E8616B"/>
<path d="M58.3961 45.9797L56.5615 47.0597C56.2323 46.8837 55.8807 46.7393 55.5039 46.6417C55.1295 46.5453 54.7513 46.4997 54.3747 46.4933L53.2953 44.6601C53.0727 44.2793 52.5835 44.1519 52.1999 44.3765C51.8195 44.6007 51.6929 45.0909 51.9171 45.4719L52.6819 46.7709C52.4015 46.8721 52.1279 46.9981 51.8655 47.1527C50.7609 47.8031 49.9757 48.8453 49.6545 50.0855C49.6005 50.2929 49.5775 50.5085 49.5515 50.7229C48.2037 51.6675 47.2291 53.0721 46.8029 54.7199C46.3497 56.4679 46.5623 58.2797 47.3989 59.8203C48.2465 61.3797 49.6301 62.4753 51.2949 62.9063C51.8003 63.0367 52.3129 63.1017 52.8231 63.1017C53.9941 63.1017 55.1559 62.7611 56.1989 62.0975C57.6779 61.1565 58.7419 59.6749 59.1943 57.9265C59.6321 56.2337 59.4211 54.5353 58.7315 53.1111C58.8137 52.9105 58.8921 52.7067 58.9481 52.4917C59.3607 50.8973 58.9175 49.2797 57.9071 48.1249L59.2083 47.3589C59.5887 47.1347 59.7153 46.6445 59.4911 46.2635C59.2689 45.8829 58.7791 45.7559 58.3961 45.9797ZM57.6461 57.5255C57.2953 58.8801 56.4757 60.0247 55.3399 60.7477C54.2211 61.4587 52.9289 61.6763 51.6961 61.3571C50.7559 61.1141 49.9367 60.5783 49.3195 59.8209C49.9831 59.7705 50.5723 59.3133 50.7485 58.6331C50.9697 57.7775 50.4557 56.9047 49.6003 56.6833C49.0897 56.5511 48.5759 56.6851 48.1951 56.9933C48.1425 56.3765 48.1903 55.7445 48.3517 55.1209C48.7025 53.7663 49.5213 52.6217 50.6579 51.8987C51.4399 51.4015 52.3071 51.1459 53.1789 51.1459C53.5539 51.1459 53.9305 51.1931 54.3015 51.2893C55.6209 51.6305 56.6553 52.5403 57.2535 53.7195C56.6565 53.6343 56.0781 54.0035 55.9233 54.6009C55.7573 55.2425 56.1429 55.8971 56.7845 56.0633C57.1569 56.1597 57.5309 56.0661 57.8141 55.8485C57.8421 56.3967 57.7921 56.9611 57.6461 57.5255ZM54.7025 49.7399C53.6323 49.4641 52.5317 49.4873 51.4841 49.7889C51.7579 49.2727 52.1613 48.8353 52.6775 48.5313C53.4143 48.0973 54.2767 47.9763 55.1025 48.1911C56.5637 48.5689 57.5203 49.9043 57.4933 51.3495C56.7387 50.5909 55.7931 50.0223 54.7025 49.7399Z" fill="#E8616B"/>
<path d="M51.7641 53.1118C51.1225 52.9458 50.4677 53.3314 50.3017 53.973C50.1357 54.6146 50.5213 55.2694 51.1629 55.4354C51.8045 55.6014 52.4593 55.2158 52.6253 54.5742C52.7913 53.9326 52.4057 53.2778 51.7641 53.1118Z" fill="#043353"/>
<path d="M54.6479 56.3366C53.7926 56.1152 52.9196 56.6294 52.6982 57.4848C52.4768 58.3402 52.9908 59.2132 53.8461 59.4346C54.7017 59.656 55.5747 59.1418 55.7959 58.2864C56.0175 57.431 55.5035 56.558 54.6479 56.3366Z" fill="#043353"/>
<path d="M56.7999 39.1996C61.6523 39.1996 65.5999 35.252 65.5999 30.3996C65.5999 25.5472 61.6523 21.5996 56.7999 21.5996C51.9475 21.5996 47.9999 25.5472 47.9999 30.3996C47.9999 35.252 51.9475 39.1996 56.7999 39.1996ZM56.7999 23.1996C60.7703 23.1996 63.9999 26.4296 63.9999 30.3996C63.9999 34.3696 60.7703 37.5996 56.7999 37.5996C52.8295 37.5996 49.5999 34.3696 49.5999 30.3996C49.5999 26.4296 52.8295 23.1996 56.7999 23.1996Z" fill="#043353"/>
<path d="M52.7999 29.5998C52.3577 29.5998 51.9999 29.958 51.9999 30.3998C51.9999 30.8416 52.3577 31.1998 52.7999 31.1998H53.5999C53.5999 31.5772 53.6773 31.9342 53.7977 32.2706L53.0343 33.034C52.7219 33.3464 52.7219 33.8528 53.0343 34.1652C53.1905 34.3214 53.3953 34.3996 53.5999 34.3996C53.8045 34.3996 54.0093 34.3214 54.1655 34.1652L54.7197 33.611C55.2805 34.0958 56.0021 34.3998 56.7999 34.3998C57.5977 34.3998 58.3193 34.0958 58.8801 33.6114L59.4343 34.1656C59.5905 34.3218 59.7953 34.4 59.9999 34.4C60.2045 34.4 60.4093 34.3218 60.5655 34.1656C60.8779 33.8532 60.8779 33.3468 60.5655 33.0344L59.8021 32.271C59.9225 31.9342 59.9999 31.5772 59.9999 31.1998H60.7999C61.2421 31.1998 61.5999 30.8416 61.5999 30.3998C61.5999 29.958 61.2421 29.5998 60.7999 29.5998H59.9999C59.9999 29.243 59.9277 28.9054 59.8195 28.5846L61.1577 27.9154C61.5531 27.7178 61.7131 27.2372 61.5155 26.842C61.3171 26.447 60.8365 26.2862 60.4421 26.4842L58.9381 27.2362C58.3703 26.722 57.6249 26.3998 56.7999 26.3998C55.9749 26.3998 55.2295 26.722 54.6617 27.2362L53.1577 26.4842C52.7623 26.2862 52.2819 26.447 52.0843 26.842C51.8867 27.2374 52.0467 27.7178 52.4421 27.9154L53.7803 28.5846C53.6721 28.9054 53.5999 29.243 53.5999 29.5998H52.7999ZM55.1999 29.5998C55.1999 28.7174 55.9179 27.9998 56.7999 27.9998C57.6819 27.9998 58.3999 28.7174 58.3999 29.5998V31.1998C58.3999 32.0822 57.6819 32.7998 56.7999 32.7998C55.9179 32.7998 55.1999 32.0822 55.1999 31.1998V29.5998Z" fill="#E8616B"/>
<path d="M36 55.9992C36 53.3524 33.8468 51.1992 31.2 51.1992C28.5532 51.1992 26.4 53.3524 26.4 55.9992C26.4 58.646 28.5532 60.7992 31.2 60.7992C33.8468 60.7992 36 58.646 36 55.9992ZM31.2 59.1992C29.4352 59.1992 28 57.7636 28 55.9992C28 54.2348 29.4352 52.7992 31.2 52.7992C32.9648 52.7992 34.4 54.2348 34.4 55.9992C34.4 57.7636 32.9648 59.1992 31.2 59.1992Z" fill="#043353"/>
</svg>
