<svg width="85" height="85" viewBox="0 0 85 85" fill="none" xmlns="http://www.w3.org/2000/svg">
<circle cx="42.5" cy="42.5" r="42.5" fill="#FFF1F2"/>
<g clip-path="url(#clip0)">
<path d="M15 71.9999H20C20.8485 71.9972 21.6558 71.6336 22.22 70.9999H47.3C48.7674 71.0005 50.2067 70.5971 51.46 69.8339L70.2 58.4259C71.0862 57.8907 71.7102 57.0114 71.9227 55.9982C72.1353 54.9851 71.9174 53.9291 71.321 53.0829C71.2998 53.0481 71.2764 53.0147 71.251 52.9829C70.2836 51.6977 68.6047 51.172 67.077 51.6759L60 54.0289V32.9999H61.31C62.1485 33.0044 62.9007 32.4853 63.1942 31.6999C63.4877 30.9144 63.26 30.0293 62.624 29.4829L60 27.2179V15.9999C60 14.8953 59.1046 13.9999 58 13.9999H53C51.8954 13.9999 51 14.8953 51 15.9999V19.4479L43.3 12.7999C42.5503 12.1631 41.4497 12.1631 40.7 12.7999L21.373 29.4859C20.739 30.0331 20.5131 30.9175 20.807 31.7018C21.101 32.4861 21.8525 33.0042 22.69 32.9999H24V46.9999H22.816C22.3937 45.8055 21.2668 45.0051 20 44.9999H15C13.3431 44.9999 12 46.343 12 47.9999V68.9999C12 70.6567 13.3431 71.9999 15 71.9999ZM67.7 53.5689C68.3862 53.3436 69.1403 53.5619 69.6 54.1189C69.6151 54.1437 69.6314 54.1678 69.649 54.1909C69.9437 54.5828 70.0586 55.0812 69.965 55.5626C69.8714 56.0439 69.5781 56.463 69.158 56.7159L50.42 68.1259C49.4798 68.6978 48.4005 69.0002 47.3 68.9999H23V48.9999H24.8C26.6451 49.002 28.435 49.6298 29.877 50.7809C31.6733 52.2139 33.9021 52.9961 36.2 52.9999H41.43C42.8245 53.0036 44.1174 53.7299 44.846 54.9189C44.857 54.9439 44.869 54.9669 44.879 54.9849C45.5073 55.9001 45.4791 57.1148 44.809 57.9999H38.72C36.7456 58.0011 34.8155 58.5856 33.172 59.6799L32.442 60.1699C31.9836 60.4781 31.8618 61.0995 32.17 61.5579C32.4782 62.0163 33.0996 62.1381 33.558 61.8299L34.282 61.3439C35.5965 60.4681 37.1405 60.0005 38.72 59.9999H47.61C48.1494 60.0006 48.6853 59.9124 49.196 59.7389L67.7 53.5689ZM49 57.6999L48.556 57.8479C48.2511 57.9501 47.9315 58.0014 47.61 57.9999H47.065C47.5061 56.6722 47.3477 55.2184 46.631 54.0169C46.6151 53.9825 46.5971 53.9491 46.577 53.9169C45.4896 52.1122 43.5389 51.0062 41.432 50.9999H36.2C35.7981 50.9966 35.3969 50.9632 35 50.8999V48.9999C35 45.1339 38.134 41.9999 42 41.9999C45.866 41.9999 49 45.1339 49 48.9999V57.6999ZM53 15.9999H58V25.4919L53 21.1749V15.9999ZM28 32.9999C28.5523 32.9999 29 32.5522 29 31.9999C29 31.4476 28.5523 30.9999 28 30.9999H22.683L42 14.3169L51.3 22.3469L61.31 30.9999H48C47.4477 30.9999 47 31.4476 47 31.9999C47 32.5522 47.4477 32.9999 48 32.9999H58V54.6999L51 57.0329V48.9999C51 44.0293 46.9706 39.9999 42 39.9999C37.0294 39.9999 33 44.0293 33 48.9999V50.3359C32.3273 50.0502 31.6965 49.6744 31.125 49.2189C29.6482 48.0445 27.8736 47.3042 26 47.0809V32.9999H28ZM14 47.9999C14 47.4476 14.4477 46.9999 15 46.9999H20C20.5523 46.9999 21 47.4476 21 47.9999V68.9999C21 69.5522 20.5523 69.9999 20 69.9999H15C14.4477 69.9999 14 69.5522 14 68.9999V47.9999Z" fill="#043353"/>
<path d="M24 17C24.5523 17 25 16.5523 25 16V14C25 13.4477 24.5523 13 24 13C23.4477 13 23 13.4477 23 14V16C23 16.5523 23.4477 17 24 17Z" fill="#E8616B"/>
<path d="M24 19C23.4477 19 23 19.4477 23 20V22C23 22.5523 23.4477 23 24 23C24.5523 23 25 22.5523 25 22V20C25 19.4477 24.5523 19 24 19Z" fill="#E8616B"/>
<path d="M26.0002 19H28.0002C28.5525 19 29.0002 18.5523 29.0002 18C29.0002 17.4477 28.5525 17 28.0002 17H26.0002C25.448 17 25.0002 17.4477 25.0002 18C25.0002 18.5523 25.448 19 26.0002 19Z" fill="#E8616B"/>
<path d="M20 19H22C22.5523 19 23 18.5523 23 18C23 17.4477 22.5523 17 22 17H20C19.4477 17 19 17.4477 19 18C19 18.5523 19.4477 19 20 19Z" fill="#E8616B"/>
<path d="M67.4999 41.5004C67.7651 41.5004 68.0195 41.395 68.2069 41.2074L69.7069 39.7074C70.0859 39.315 70.0805 38.6913 69.6948 38.3056C69.309 37.9199 68.6853 37.9144 68.2929 38.2934L66.7929 39.7934C66.507 40.0794 66.4215 40.5094 66.5763 40.8831C66.731 41.2567 67.0955 41.5003 67.4999 41.5004Z" fill="#E8616B"/>
<path d="M63.7931 42.7924L62.2931 44.2924C62.0331 44.5435 61.9289 44.9153 62.0204 45.2649C62.1119 45.6146 62.385 45.8876 62.7346 45.9791C63.0842 46.0706 63.456 45.9664 63.7071 45.7064L65.2071 44.2064C65.5861 43.8141 65.5807 43.1903 65.1949 42.8046C64.8092 42.4189 64.1855 42.4135 63.7931 42.7924Z" fill="#E8616B"/>
<path d="M68.2932 45.7064C68.6855 46.0854 69.3093 46.08 69.695 45.6943C70.0807 45.3085 70.0861 44.6848 69.7072 44.2924L68.2072 42.7924C67.8148 42.4135 67.1911 42.4189 66.8053 42.8046C66.4196 43.1903 66.4142 43.8141 66.7932 44.2064L68.2932 45.7064Z" fill="#E8616B"/>
<path d="M62.293 38.2928C61.9026 38.6833 61.9026 39.3163 62.293 39.7068L63.793 41.2068C64.1854 41.5858 64.8091 41.5803 65.1948 41.1946C65.5806 40.8089 65.586 40.1852 65.207 39.7928L63.707 38.2928C63.3165 37.9024 62.6835 37.9024 62.293 38.2928Z" fill="#E8616B"/>
<path d="M32 33C34.7601 33.0033 36.9967 35.2399 37 38C37 38.5523 37.4477 39 38 39C38.5523 39 39 38.5523 39 38C39.0033 35.2399 41.2399 33.0033 44 33C44.5523 33 45 32.5523 45 32C45 31.4477 44.5523 31 44 31C41.2399 30.9967 39.0033 28.7601 39 26C39 25.4477 38.5523 25 38 25C37.4477 25 37 25.4477 37 26C36.9967 28.7601 34.7601 30.9967 32 31C31.4477 31 31 31.4477 31 32C31 32.5523 31.4477 33 32 33ZM38 29.6C38.5931 30.5831 39.4169 31.4069 40.4 32C39.4169 32.5931 38.5931 33.4169 38 34.4C37.4069 33.4169 36.5831 32.5931 35.6 32C36.5831 31.4069 37.4069 30.5831 38 29.6Z" fill="#E8616B"/>
</g>
<defs>
<clipPath id="clip0">
<rect width="60" height="60" fill="white" transform="translate(12 12)"/>
</clipPath>
</defs>
</svg>
