<svg width="66" height="66" viewBox="0 0 66 66" fill="none" xmlns="http://www.w3.org/2000/svg">
<path d="M65.8038 36.9531C65.6402 36.6257 65.2309 36.462 64.9035 36.3802C63.0211 36.3802 46.8156 35.7254 46.8156 16.9009C46.8156 16.328 46.3246 15.8369 45.7516 15.8369C45.1787 15.8369 44.6876 16.328 44.6876 16.9009C44.6876 35.7254 28.4822 36.3802 26.6816 36.3802C26.436 36.3802 26.1905 36.462 26.0268 36.6257C25.8631 36.7076 25.7813 36.8713 25.6994 36.9531C25.5357 37.2805 25.5357 37.6897 25.6994 38.0171C25.8631 38.3445 26.2723 38.59 26.6816 38.59C26.6816 38.59 26.6816 38.59 26.7634 38.59C28.6459 38.59 44.7695 39.2448 44.7695 58.0693C44.7695 58.6422 45.2606 59.1333 45.8335 59.1333C46.4064 59.1333 46.8975 58.6422 46.8975 58.0693C46.8975 39.3266 63.0211 38.59 64.9035 38.59C65.3128 38.59 65.6402 38.3445 65.8857 38.0171C66.0494 37.6897 66.0494 37.2805 65.8038 36.9531ZM45.7516 50.0484C43.3781 42.2731 37.5671 38.9174 32.9837 37.4442C37.5671 35.971 43.3781 32.6153 45.7516 24.8399C48.1252 32.6153 53.9362 35.971 58.5196 37.4442C53.9362 38.9174 48.1252 42.2731 45.7516 50.0484Z" fill="#E8616B"/>
<path d="M32.2468 15.6735C32.8197 15.6735 33.3108 15.1825 33.3108 14.5277C33.3108 13.9548 32.8197 13.4637 32.2468 13.4637C31.2646 13.4637 22.4253 13.1363 22.4253 2.82376C22.4253 2.25084 21.9342 1.75977 21.3613 1.75977C20.7884 1.75977 20.2973 2.25084 20.2973 2.82376C20.2973 13.1363 11.458 13.4637 10.4759 13.4637C10.394 13.4637 10.394 13.4637 10.394 13.4637C9.82109 13.5456 9.41187 13.9548 9.41187 14.5277C9.41187 15.1006 9.90294 15.5917 10.4759 15.5917C11.5398 15.5917 20.2973 15.9191 20.2973 26.2316C20.2973 26.8046 20.7884 27.2956 21.3613 27.2956C21.8524 27.3775 22.3435 26.8864 22.3435 26.3135C22.3435 16.0009 31.1828 15.6735 32.1649 15.6735H32.2468ZM21.2795 20.3388C19.9699 17.2286 17.5964 15.5099 15.3866 14.5277C17.7601 13.5456 19.9699 11.6631 21.2795 8.71665C22.589 11.8268 24.9625 13.5456 27.1723 14.5277C24.7988 15.5099 22.589 17.3923 21.2795 20.3388Z" fill="#E8616B"/>
<path d="M22.835 50.3768C21.8528 50.3768 13.0135 50.0494 13.0135 39.7368C13.0135 39.1639 12.5224 38.6729 11.9495 38.6729C11.3766 38.6729 10.8855 39.1639 10.8855 39.7368C10.8855 50.0494 2.04615 50.3768 1.064 50.3768C0.98215 50.3768 0.98215 50.3768 0.98215 50.3768C0.409229 50.4586 0 50.8679 0 51.4408C0 52.0137 0.491075 52.5048 1.064 52.5048C2.12799 52.5048 10.8855 52.8322 10.8855 63.1447C10.8855 63.7177 11.3766 64.2087 11.9495 64.2087C12.4406 64.3724 12.9316 63.8813 12.9316 63.2266C12.9316 52.914 21.771 52.5866 22.7531 52.5866H22.835C23.4079 52.5866 23.899 52.0956 23.899 51.4408C23.899 50.8679 23.4079 50.3768 22.835 50.3768ZM11.8676 57.3337C10.4763 54.2235 8.18458 52.5048 5.97475 51.5226C8.34827 50.5405 10.5581 48.658 11.8676 45.7116C13.1772 48.8217 15.5507 50.5405 17.7605 51.5226C15.387 52.5048 13.1772 54.3872 11.8676 57.3337Z" fill="#E8616B"/>
</svg>
