<svg width="21" height="20" viewBox="0 0 21 20" fill="none" xmlns="http://www.w3.org/2000/svg">
<path d="M15.595 19.0058H15.567C11.7253 18.9112 8.05925 17.3773 5.29498 14.7078C2.6245 11.946 1.08967 8.28135 0.994862 4.44079C0.989205 3.90278 1.20044 3.38515 1.58098 3.00479L4.29498 0.292786C4.68548 -0.0975955 5.31848 -0.0975955 5.70898 0.292786L9.70898 4.29279C10.0994 4.68329 10.0994 5.31629 9.70898 5.70679L8.11298 7.29979C8.40899 8.40571 8.95425 9.42918 9.70698 10.2918C10.568 11.0448 11.5902 11.5904 12.695 11.8868L14.295 10.2928C14.6855 9.9024 15.3185 9.9024 15.709 10.2928L19.709 14.2928C20.0994 14.6833 20.0994 15.3163 19.709 15.7068L16.995 18.4198C16.6249 18.7937 16.121 19.0046 15.595 19.0058ZM4.99998 2.41479H4.99498L2.99498 4.41879C3.07652 7.73744 4.4013 10.9045 6.70698 13.2928C9.09541 15.5977 12.2618 16.9223 15.58 17.0048L17.587 14.9998L14.995 12.4148L13.702 13.7068C13.517 13.8938 13.265 13.9993 13.002 13.9998C12.9317 13.9998 12.8617 13.9924 12.793 13.9778C11.1266 13.6092 9.57937 12.8283 8.29298 11.7068C7.17143 10.4204 6.39059 8.87316 6.02198 7.20679C5.95244 6.87555 6.05517 6.53162 6.29498 6.29279L7.58698 4.99979L4.99998 2.41479Z" fill="#E8616B"/>
</svg>
