<svg width="14" height="14" viewBox="0 0 14 14" fill="none" xmlns="http://www.w3.org/2000/svg">
<path d="M12.577 13.9996L7.80999 9.23358C5.65381 10.656 2.771 10.216 1.13731 8.21513C-0.496374 6.21427 -0.35092 3.30171 1.47399 1.47358C3.3018 -0.35203 6.21469 -0.498113 8.21598 1.13546C10.2173 2.76904 10.6575 5.65217 9.23498 7.80858L14 12.5766L12.577 13.9996ZM5.03399 2.01357C3.59323 2.01266 2.35247 3.0296 2.07047 4.44248C1.78848 5.85537 2.5438 7.2707 3.87451 7.82293C5.20523 8.37516 6.74073 7.91049 7.54197 6.71309C8.34321 5.51569 8.18705 3.91904 7.16899 2.89958C6.60424 2.33092 5.83543 2.01187 5.03399 2.01357Z" fill="#E8616B"/>
</svg>
